<svg width="460" height="240" viewBox="0 0 460 240" xmlns="http://www.w3.org/2000/svg">
  <rect width="460" height="240" rx="24" fill="#FDF7F5"/>
  <path d="M62 60 360 32c16-2 28 6 30 18l16 94c2 13-7 26-22 28L106 198c-20 3-36-10-38-26L52 84c-2-14 4-22 10-24Z" fill="#8C2D3B"/>
  <path d="M74 92 346 66c10-1 21 5 22 14l8 50c1 9-6 18-16 19L92 174c-13 1-23-6-24-15l-8-54c-1-9 4-12 14-13Z" fill="#F6E9DE"/>
  <path d="M82 132c2 12 14 19 28 17l226-22c10-1 19-8 17-18l-2-12c-6 9-18 13-32 15L96 132c-6 0-10 0-14 0Z" fill="#E3CFCA" opacity="0.5"/>
  <path d="M116 54c6-12 22-20 32-18l174 24c16 2 28 12 26 22l-2 10c-6-10-18-12-34-14L128 68c-10-1-12-5-12-14Z" fill="#F6E9DE"/>
</svg>
