<svg width="460" height="240" viewBox="0 0 460 240" xmlns="http://www.w3.org/2000/svg">
  <rect width="460" height="240" rx="24" fill="#FCF2F6"/>
  <path d="M80 174c0-40 16-78 48-112s62-50 90-50 54 16 80 48c26 32 40 72 40 116l-258-2Z" fill="#F7A1F7"/>
  <path d="M98 140c22 0 38-12 50-24 16-14 34-18 60-18 28 0 44 6 60 18 16 12 32 24 56 24 14 0 26-4 36-8-2 20-4 38-6 54l-236 2-22-48c0-2 0-4 2-4Z" fill="#EE4242" opacity="0.85"/>
  <path d="M126 102c-6-18 14-34 24-36 10-2 22 4 26 10 4 6 4 12-4 16-12 6-40 10-46 10Z" fill="#FDF7F5"/>
  <path d="M278 56c-4-14 14-26 26-22s20 18 18 26c-2 8-22 8-30 6s-12-6-14-10Z" fill="#FDF7F5"/>
  <path d="M172 170c0-18 16-32 36-32s36 12 36 32c0 20-18 32-36 32s-36-14-36-32Z" fill="#FDF7F5"/>
  <circle cx="208" cy="170" r="10" fill="#EE4242"/>
  <circle cx="244" cy="170" r="10" fill="#73D1B4"/>
  <circle cx="226" cy="186" r="8" fill="#EE4242"/>
</svg>
