<svg width="280" height="280" viewBox="0 0 280 280" xmlns="http://www.w3.org/2000/svg">
  <defs>
    <linearGradient id="bg2" x1="0" y1="0" x2="1" y2="1">
      <stop stop-color="#FFCE7A" offset="0"/>
      <stop stop-color="#FF9A5F" offset="1"/>
    </linearGradient>
  </defs>
  <circle cx="140" cy="140" r="134" fill="#F3F5F7" stroke="#F6AA42" stroke-width="12"/>
  <circle cx="140" cy="140" r="118" fill="url(#bg2)"/>
  <path d="M90 172c0 33 21 59 50 59s50-26 50-59v-10H90v10Z" fill="#51342F"/>
  <rect x="102" y="130" width="76" height="60" rx="30" fill="#F7DCC5"/>
  <path d="M95 134c5-38 33-50 62-50 29 0 44 20 40 52-2 18-6 26-16 30-22 9-45 12-78-4-6-3-8-13-8-28Z" fill="#4B2F2C"/>
  <circle cx="122" cy="146" r="6" fill="#2E1C1B"/>
  <circle cx="156" cy="146" r="6" fill="#2E1C1B"/>
  <path d="M134 161c3 6 13 9 22 0" stroke="#E68561" stroke-width="6" stroke-linecap="round"/>
  <rect x="92" y="188" width="96" height="64" rx="24" fill="#F386A0"/>
  <rect x="122" y="218" width="44" height="16" rx="8" fill="#F7DCC5"/>
</svg>
