<svg width="280" height="280" viewBox="0 0 280 280" xmlns="http://www.w3.org/2000/svg">
  <defs>
    <linearGradient id="bg" x1="0" y1="0" x2="1" y2="1">
      <stop stop-color="#FCFCE3" offset="0"></stop>
      <stop stop-color="#F7A1F7" offset="1"></stop>
    </linearGradient>
  </defs>
  <circle cx="140" cy="140" r="136" fill="#FCFCE3" stroke="#73D1B4" stroke-width="10"></circle>
  <circle cx="140" cy="140" r="118" fill="url(#bg)"></circle>
  <path d="M86 172c0 34 24 62 54 62s54-28 54-62v-10H86v10Z" fill="#2A2E38"></path>
  <rect x="102" y="126" width="76" height="68" rx="34" fill="#F4D3B6"></rect>
  <path d="M116 124c0-30 21-48 46-48 22 0 34 10 38 26 3 12 3 26 3 40 0 6-12 16-28 20-32 8-59-10-59-38Z" fill="#2F313A"></path>
  <circle cx="126" cy="142" r="7" fill="#2F313A"></circle>
  <circle cx="160" cy="142" r="7" fill="#2F313A"></circle>
  <path d="M138 160c3 6 12 9 20 1" stroke="#EE4242" stroke-width="6" stroke-linecap="round"></path>
  <rect x="94" y="190" width="92" height="62" rx="22" fill="#73D1B4"></rect>
  <rect x="118" y="216" width="46" height="18" rx="9" fill="#F4D3B6"></rect>
  <path d="M96 112c6-20 21-30 42-30 18 0 32 6 40 20 12 20 8 32-2 36-22 9-64 5-80-26Z" fill="#EE4242" opacity="0.85"></path>
  <path d="M152 206c16 0 30 12 30 24 0 6-5 12-12 12-12 0-18-10-18-20 0-6 0-16 0-16Z" fill="#F7A1F7" opacity="0.6"></path>
</svg>