<svg width="280" height="280" viewBox="0 0 280 280" xmlns="http://www.w3.org/2000/svg">
  <defs>
    <linearGradient id="bg3" x1="0" y1="0" x2="1" y2="1">
      <stop stop-color="#FFC566" offset="0"/>
      <stop stop-color="#FF9951" offset="1"/>
    </linearGradient>
  </defs>
  <circle cx="140" cy="140" r="134" fill="#F3F5F7" stroke="#F59F40" stroke-width="12"/>
  <circle cx="140" cy="140" r="118" fill="url(#bg3)"/>
  <path d="M88 169c0 32 24 58 52 58s52-26 52-58v-10H88v10Z" fill="#4F3424"/>
  <rect x="108" y="128" width="64" height "60" rx="30" fill="#F7D6BC"/>
  <path d="M95 133c8-34 32-48 55-48 23 0 40 14 45 48 3 22-7 34-18 38-25 10-59 9-78-4-10-6-12-19-4-34Z" fill="#25160F"/>
  <path d="M109 134c0-17 16-22 32-22 24 0 36 11 36 25 0 5-10 15-23 17-20 3-45-7-45-20Z" fill="#3F271A"/>
  <circle cx="124" cy="146" r="6" fill="#1A0F0A"/>
  <circle cx="156" cy="146" r="6" fill="#1A0F0A"/>
  <path d="M134 161c3 6 13 9 22 0" stroke="#E0803E" stroke-width="6" stroke-linecap="round"/>
  <rect x="92" y="188" width="96" height="64" rx="24" fill="#8C6239"/>
  <rect x="122" y="218" width="44" height="16" rx="8" fill="#F7D6BC"/>
  <path d="M140 190c8 0 14-10 14-24 0-13-6-22-14-22s-14 9-14 22c0 14 6 24 14 24Z" fill="#1A0F0A"/>
</svg>
